<?xml version="1.0" encoding="UTF-8" standalone="no"?>
<!DOCTYPE svg PUBLIC "-//W3C//DTD SVG 1.1//EN" "http://www.w3.org/Graphics/SVG/1.1/DTD/svg11.dtd">
<svg width="100%" height="100%" viewBox="0 0 501 125" version="1.1" xmlns="http://www.w3.org/2000/svg" xmlns:xlink="http://www.w3.org/1999/xlink" xml:space="preserve" xmlns:serif="http://www.serif.com/" style="fill-rule:evenodd;clip-rule:evenodd;stroke-linejoin:round;stroke-miterlimit:2;">
    <g transform="matrix(1,0,0,1,0.49984,-1.12085)">
        <g transform="matrix(0.500831,0,0,0.500831,-104.306,2.6538)">
            <path d="M330.821,-0.823C398.461,-0.823 453.376,54.092 453.376,121.732C453.376,189.372 398.461,244.286 330.821,244.286C263.181,244.286 208.266,189.372 208.266,121.732C208.266,54.092 263.181,-0.823 330.821,-0.823ZM330.359,8.552C268.162,8.552 217.666,59.048 217.666,121.245C217.666,183.442 268.162,233.939 330.359,233.939C392.556,233.939 443.052,183.442 443.052,121.245C443.052,59.048 392.556,8.552 330.359,8.552Z" style="fill:rgb(123,86,113);"/>
        </g>
        <g transform="matrix(2.49997,0,0,2.49997,-2562.59,-1751.82)">
            <g transform="matrix(0.0659089,0,0,0.0659089,986.659,665.755)">
                <circle cx="953.597" cy="915.403" r="332.597" style="fill:rgb(123,86,113);fill-opacity:0;"/>
            </g>
            <g transform="matrix(-0.0490858,0.0490858,-0.0490858,-0.0490858,1138.11,721.059)">
                <path d="M867.285,865.621C874.103,907.249 910.278,939.062 953.826,939.062C972.818,939.062 990.407,933.012 1004.77,922.739C1004.77,922.739 1129.14,1047.11 1129.14,1047.11C1111.34,1060.64 1089.14,1068.67 1065.08,1068.67L842.576,1068.67C784.045,1068.67 736.524,1021.15 736.524,962.615L736.524,865.621C736.524,865.621 867.285,865.621 867.285,865.621ZM968.274,634.062L1065.08,634.062C1123.61,634.062 1171.13,681.583 1171.13,740.115L1171.13,962.615C1171.13,986.676 1163.1,1008.88 1149.57,1026.68C1149.57,1026.68 1025.2,902.307 1025.2,902.307C1035.47,887.945 1041.52,870.356 1041.52,851.365C1041.52,807.885 1009.81,771.756 968.274,764.855C968.274,764.855 968.274,634.062 968.274,634.062ZM736.524,836.726L736.524,740.115C736.524,681.583 784.045,634.062 842.576,634.062L939.379,634.062L939.379,764.855C902.606,770.964 873.536,799.981 867.348,836.727C867.349,836.726 736.524,836.726 736.524,836.726Z" style="fill:rgb(123,86,113);"/>
                <clipPath id="_clip1">
                    <path d="M867.285,865.621C874.103,907.249 910.278,939.062 953.826,939.062C972.818,939.062 990.407,933.012 1004.77,922.739C1004.77,922.739 1129.14,1047.11 1129.14,1047.11C1111.34,1060.64 1089.14,1068.67 1065.08,1068.67L842.576,1068.67C784.045,1068.67 736.524,1021.15 736.524,962.615L736.524,865.621C736.524,865.621 867.285,865.621 867.285,865.621ZM968.274,634.062L1065.08,634.062C1123.61,634.062 1171.13,681.583 1171.13,740.115L1171.13,962.615C1171.13,986.676 1163.1,1008.88 1149.57,1026.68C1149.57,1026.68 1025.2,902.307 1025.2,902.307C1035.47,887.945 1041.52,870.356 1041.52,851.365C1041.52,807.885 1009.81,771.756 968.274,764.855C968.274,764.855 968.274,634.062 968.274,634.062ZM736.524,836.726L736.524,740.115C736.524,681.583 784.045,634.062 842.576,634.062L939.379,634.062L939.379,764.855C902.606,770.964 873.536,799.981 867.348,836.727C867.349,836.726 736.524,836.726 736.524,836.726Z"/>
                </clipPath>
                <g clip-path="url(#_clip1)">
                    <g transform="matrix(-5.94395,-5.94395,5.94395,-5.94395,1219.94,5924.47)">
                        <path d="M468.641,387.312L476.768,395.439C481.691,400.362 481.691,408.357 476.768,413.281L468.625,421.424L457.623,410.422C460.202,406.814 460.206,401.928 457.636,398.317C457.636,398.317 468.641,387.312 468.641,387.312Z" style="fill:rgb(143,143,143);"/>
                    </g>
                </g>
            </g>
        </g>
        <g transform="matrix(1.4588,0,0,1.4588,-594.077,-526.503)">
            <path d="M525.147,386.947C527.671,386.947 530.318,387.248 533.086,387.851C535.855,388.453 538.544,389.237 541.155,390.201L541.155,370.935L552.43,369.683L552.43,434.942C550.909,435.424 549.095,435.876 546.986,436.297C544.877,436.719 542.618,437.088 540.208,437.405C537.798,437.721 535.295,437.977 532.699,438.173C530.103,438.369 527.585,438.467 525.147,438.467C520.729,438.467 516.784,438.143 513.313,437.495C509.842,436.847 506.901,435.845 504.491,434.49C502.081,433.134 500.245,431.417 498.983,429.338C497.721,427.259 497.09,424.788 497.09,421.926L497.09,403.487C497.09,400.625 497.721,398.155 498.983,396.076C500.245,393.997 502.081,392.28 504.491,390.924C506.901,389.568 509.842,388.566 513.313,387.918C516.784,387.271 520.729,386.947 525.147,386.947ZM528.245,430.061C529.393,430.061 530.562,430 531.752,429.88C532.943,429.759 534.105,429.594 535.238,429.383C536.371,429.172 537.447,428.931 538.465,428.66C539.484,428.389 540.38,428.102 541.155,427.801L541.155,399.42C539.175,398.426 537.146,397.605 535.066,396.957C532.986,396.309 530.712,395.985 528.245,395.985C526.467,395.985 524.738,396.023 523.06,396.098C521.381,396.174 519.811,396.339 518.348,396.595C516.885,396.852 515.536,397.213 514.303,397.68C513.069,398.147 512.015,398.772 511.14,399.556C510.265,400.339 509.583,401.303 509.096,402.448C508.608,403.593 508.364,404.964 508.364,406.561L508.364,419.847C508.364,422.288 508.902,424.193 509.978,425.564C511.054,426.935 512.495,427.952 514.303,428.615C516.11,429.277 518.219,429.684 520.628,429.835C523.038,429.985 525.577,430.061 528.245,430.061ZM572.035,422.107C572.035,423.493 572.516,424.653 573.477,425.587C574.438,426.521 575.729,427.281 577.35,427.869C578.971,428.456 580.843,428.878 582.966,429.134C585.089,429.39 587.298,429.518 589.593,429.518C592.002,429.518 594.269,429.375 596.392,429.089C598.515,428.803 600.365,428.366 601.943,427.779C603.521,427.191 604.769,426.43 605.687,425.496C606.605,424.562 607.064,423.432 607.064,422.107L607.064,386.947L618.511,387.851L618.511,424.999C618.511,426.626 618.13,428.117 617.37,429.473C616.61,430.829 615.556,432.042 614.207,433.111C612.859,434.181 611.267,435.107 609.431,435.891C607.595,436.674 605.608,437.322 603.471,437.834C601.333,438.346 599.081,438.73 596.715,438.986C594.348,439.242 591.974,439.37 589.593,439.37C587.183,439.37 584.802,439.242 582.449,438.986C580.097,438.73 577.852,438.346 575.715,437.834C573.577,437.322 571.591,436.674 569.755,435.891C567.918,435.107 566.326,434.181 564.978,433.111C563.63,432.042 562.575,430.837 561.815,429.496C561.055,428.155 560.675,426.656 560.675,424.999L560.675,387.851L572.035,386.947L572.035,422.107ZM627.272,427.962L627.272,401.662C627.272,399.643 627.745,397.888 628.692,396.397C629.639,394.905 630.901,393.632 632.479,392.578C634.057,391.523 635.871,390.657 637.923,389.979C639.974,389.301 642.104,388.774 644.313,388.397C646.522,388.021 648.724,387.757 650.919,387.607C653.113,387.456 655.157,387.381 657.051,387.381C658.514,387.381 660.278,387.456 662.344,387.607C664.409,387.757 666.554,388.021 668.777,388.397C671,388.774 673.202,389.301 675.383,389.979C677.563,390.657 679.521,391.523 681.257,392.578C682.992,393.632 684.398,394.905 685.474,396.397C686.55,397.888 687.087,399.643 687.087,401.662L687.087,417.045L637.772,417.045L637.772,422.197C637.772,423.432 638.088,424.494 638.719,425.383C639.35,426.272 640.196,427.025 641.258,427.643C642.319,428.261 643.538,428.758 644.915,429.134C646.292,429.511 647.727,429.805 649.219,430.016C650.711,430.226 652.195,430.362 653.673,430.422C655.15,430.483 656.534,430.513 657.825,430.513C659.059,430.513 660.371,430.483 661.763,430.422C663.154,430.362 664.538,430.234 665.915,430.038C667.292,429.842 668.619,429.556 669.896,429.179C671.173,428.803 672.291,428.313 673.252,427.711C674.214,427.108 674.981,426.362 675.555,425.474C675.641,425.341 676.553,424.203 676.626,424.063L687.087,425.063L687.087,425.09C687.087,427.108 686.55,428.863 685.474,430.354C684.398,431.846 682.992,433.119 681.257,434.173C679.521,435.228 677.563,436.094 675.383,436.772C673.202,437.45 671,437.977 668.777,438.354C666.554,438.73 664.409,438.994 662.344,439.144C660.278,439.295 658.514,439.37 657.051,439.37C655.157,439.37 653.113,439.295 650.919,439.144C648.724,438.994 646.522,438.73 644.313,438.354C642.104,437.977 639.974,437.45 637.923,436.772C635.871,436.094 633.952,435.428 632.479,434.173C627.609,430.463 627.272,427.962 627.272,427.962ZM637.772,409.706L676.415,409.706L676.415,404.463C676.415,403.228 676.128,402.166 675.555,401.277C674.981,400.389 674.214,399.643 673.252,399.04C672.291,398.438 671.173,397.948 669.896,397.572C668.619,397.195 667.292,396.909 665.915,396.713C664.538,396.517 663.154,396.389 661.763,396.329C660.371,396.269 659.059,396.238 657.825,396.238C656.534,396.238 655.15,396.269 653.673,396.329C652.195,396.389 650.711,396.525 649.219,396.736C647.727,396.946 646.292,397.24 644.915,397.617C643.538,397.993 642.319,398.49 641.258,399.108C640.196,399.726 639.35,400.479 638.719,401.368C638.088,402.257 637.772,403.319 637.772,404.554L637.772,409.706ZM722.701,387.851C725.226,387.851 727.872,388.152 730.641,388.755C733.409,389.357 736.099,390.14 738.71,391.105L738.71,371.839L749.984,370.587L749.984,435.845C748.464,436.327 746.649,436.779 744.54,437.201C742.432,437.623 740.173,437.992 737.763,438.308C735.353,438.625 732.85,438.881 730.254,439.077C727.657,439.273 725.14,439.37 722.701,439.37C718.283,439.37 714.339,439.047 710.867,438.399C707.396,437.751 704.455,436.749 702.046,435.393C699.636,434.038 697.8,432.32 696.537,430.242C695.275,428.163 694.644,425.692 694.644,422.83L694.644,404.391C694.644,401.529 695.275,399.059 696.537,396.98C697.8,394.901 699.636,393.183 702.046,391.828C704.455,390.472 707.396,389.47 710.867,388.822C714.339,388.175 718.283,387.851 722.701,387.851ZM725.8,430.965C726.947,430.965 728.116,430.904 729.307,430.784C730.497,430.663 731.659,430.498 732.793,430.287C733.926,430.076 735.002,429.835 736.02,429.564C737.038,429.292 737.935,429.006 738.71,428.705L738.71,400.324C736.73,399.33 734.7,398.509 732.62,397.861C730.54,397.213 728.267,396.889 725.8,396.889C724.021,396.889 722.293,396.927 720.614,397.002C718.936,397.078 717.365,397.243 715.902,397.499C714.439,397.755 713.091,398.117 711.857,398.584C710.624,399.051 709.569,399.676 708.694,400.459C707.819,401.243 707.138,402.207 706.65,403.352C706.162,404.497 705.919,405.868 705.919,407.464L705.919,420.751C705.919,423.191 706.457,425.097 707.532,426.468C708.608,427.839 710.05,428.856 711.857,429.518C713.664,430.181 715.773,430.588 718.183,430.739C720.593,430.889 723.132,430.965 725.8,430.965Z" style="fill:rgb(122,86,113);"/>
            <clipPath id="_clip2">
                <path d="M525.147,386.947C527.671,386.947 530.318,387.248 533.086,387.851C535.855,388.453 538.544,389.237 541.155,390.201L541.155,370.935L552.43,369.683L552.43,434.942C550.909,435.424 549.095,435.876 546.986,436.297C544.877,436.719 542.618,437.088 540.208,437.405C537.798,437.721 535.295,437.977 532.699,438.173C530.103,438.369 527.585,438.467 525.147,438.467C520.729,438.467 516.784,438.143 513.313,437.495C509.842,436.847 506.901,435.845 504.491,434.49C502.081,433.134 500.245,431.417 498.983,429.338C497.721,427.259 497.09,424.788 497.09,421.926L497.09,403.487C497.09,400.625 497.721,398.155 498.983,396.076C500.245,393.997 502.081,392.28 504.491,390.924C506.901,389.568 509.842,388.566 513.313,387.918C516.784,387.271 520.729,386.947 525.147,386.947ZM528.245,430.061C529.393,430.061 530.562,430 531.752,429.88C532.943,429.759 534.105,429.594 535.238,429.383C536.371,429.172 537.447,428.931 538.465,428.66C539.484,428.389 540.38,428.102 541.155,427.801L541.155,399.42C539.175,398.426 537.146,397.605 535.066,396.957C532.986,396.309 530.712,395.985 528.245,395.985C526.467,395.985 524.738,396.023 523.06,396.098C521.381,396.174 519.811,396.339 518.348,396.595C516.885,396.852 515.536,397.213 514.303,397.68C513.069,398.147 512.015,398.772 511.14,399.556C510.265,400.339 509.583,401.303 509.096,402.448C508.608,403.593 508.364,404.964 508.364,406.561L508.364,419.847C508.364,422.288 508.902,424.193 509.978,425.564C511.054,426.935 512.495,427.952 514.303,428.615C516.11,429.277 518.219,429.684 520.628,429.835C523.038,429.985 525.577,430.061 528.245,430.061ZM572.035,422.107C572.035,423.493 572.516,424.653 573.477,425.587C574.438,426.521 575.729,427.281 577.35,427.869C578.971,428.456 580.843,428.878 582.966,429.134C585.089,429.39 587.298,429.518 589.593,429.518C592.002,429.518 594.269,429.375 596.392,429.089C598.515,428.803 600.365,428.366 601.943,427.779C603.521,427.191 604.769,426.43 605.687,425.496C606.605,424.562 607.064,423.432 607.064,422.107L607.064,386.947L618.511,387.851L618.511,424.999C618.511,426.626 618.13,428.117 617.37,429.473C616.61,430.829 615.556,432.042 614.207,433.111C612.859,434.181 611.267,435.107 609.431,435.891C607.595,436.674 605.608,437.322 603.471,437.834C601.333,438.346 599.081,438.73 596.715,438.986C594.348,439.242 591.974,439.37 589.593,439.37C587.183,439.37 584.802,439.242 582.449,438.986C580.097,438.73 577.852,438.346 575.715,437.834C573.577,437.322 571.591,436.674 569.755,435.891C567.918,435.107 566.326,434.181 564.978,433.111C563.63,432.042 562.575,430.837 561.815,429.496C561.055,428.155 560.675,426.656 560.675,424.999L560.675,387.851L572.035,386.947L572.035,422.107ZM627.272,427.962L627.272,401.662C627.272,399.643 627.745,397.888 628.692,396.397C629.639,394.905 630.901,393.632 632.479,392.578C634.057,391.523 635.871,390.657 637.923,389.979C639.974,389.301 642.104,388.774 644.313,388.397C646.522,388.021 648.724,387.757 650.919,387.607C653.113,387.456 655.157,387.381 657.051,387.381C658.514,387.381 660.278,387.456 662.344,387.607C664.409,387.757 666.554,388.021 668.777,388.397C671,388.774 673.202,389.301 675.383,389.979C677.563,390.657 679.521,391.523 681.257,392.578C682.992,393.632 684.398,394.905 685.474,396.397C686.55,397.888 687.087,399.643 687.087,401.662L687.087,417.045L637.772,417.045L637.772,422.197C637.772,423.432 638.088,424.494 638.719,425.383C639.35,426.272 640.196,427.025 641.258,427.643C642.319,428.261 643.538,428.758 644.915,429.134C646.292,429.511 647.727,429.805 649.219,430.016C650.711,430.226 652.195,430.362 653.673,430.422C655.15,430.483 656.534,430.513 657.825,430.513C659.059,430.513 660.371,430.483 661.763,430.422C663.154,430.362 664.538,430.234 665.915,430.038C667.292,429.842 668.619,429.556 669.896,429.179C671.173,428.803 672.291,428.313 673.252,427.711C674.214,427.108 674.981,426.362 675.555,425.474C675.641,425.341 676.553,424.203 676.626,424.063L687.087,425.063L687.087,425.09C687.087,427.108 686.55,428.863 685.474,430.354C684.398,431.846 682.992,433.119 681.257,434.173C679.521,435.228 677.563,436.094 675.383,436.772C673.202,437.45 671,437.977 668.777,438.354C666.554,438.73 664.409,438.994 662.344,439.144C660.278,439.295 658.514,439.37 657.051,439.37C655.157,439.37 653.113,439.295 650.919,439.144C648.724,438.994 646.522,438.73 644.313,438.354C642.104,437.977 639.974,437.45 637.923,436.772C635.871,436.094 633.952,435.428 632.479,434.173C627.609,430.463 627.272,427.962 627.272,427.962ZM637.772,409.706L676.415,409.706L676.415,404.463C676.415,403.228 676.128,402.166 675.555,401.277C674.981,400.389 674.214,399.643 673.252,399.04C672.291,398.438 671.173,397.948 669.896,397.572C668.619,397.195 667.292,396.909 665.915,396.713C664.538,396.517 663.154,396.389 661.763,396.329C660.371,396.269 659.059,396.238 657.825,396.238C656.534,396.238 655.15,396.269 653.673,396.329C652.195,396.389 650.711,396.525 649.219,396.736C647.727,396.946 646.292,397.24 644.915,397.617C643.538,397.993 642.319,398.49 641.258,399.108C640.196,399.726 639.35,400.479 638.719,401.368C638.088,402.257 637.772,403.319 637.772,404.554L637.772,409.706ZM722.701,387.851C725.226,387.851 727.872,388.152 730.641,388.755C733.409,389.357 736.099,390.14 738.71,391.105L738.71,371.839L749.984,370.587L749.984,435.845C748.464,436.327 746.649,436.779 744.54,437.201C742.432,437.623 740.173,437.992 737.763,438.308C735.353,438.625 732.85,438.881 730.254,439.077C727.657,439.273 725.14,439.37 722.701,439.37C718.283,439.37 714.339,439.047 710.867,438.399C707.396,437.751 704.455,436.749 702.046,435.393C699.636,434.038 697.8,432.32 696.537,430.242C695.275,428.163 694.644,425.692 694.644,422.83L694.644,404.391C694.644,401.529 695.275,399.059 696.537,396.98C697.8,394.901 699.636,393.183 702.046,391.828C704.455,390.472 707.396,389.47 710.867,388.822C714.339,388.175 718.283,387.851 722.701,387.851ZM725.8,430.965C726.947,430.965 728.116,430.904 729.307,430.784C730.497,430.663 731.659,430.498 732.793,430.287C733.926,430.076 735.002,429.835 736.02,429.564C737.038,429.292 737.935,429.006 738.71,428.705L738.71,400.324C736.73,399.33 734.7,398.509 732.62,397.861C730.54,397.213 728.267,396.889 725.8,396.889C724.021,396.889 722.293,396.927 720.614,397.002C718.936,397.078 717.365,397.243 715.902,397.499C714.439,397.755 713.091,398.117 711.857,398.584C710.624,399.051 709.569,399.676 708.694,400.459C707.819,401.243 707.138,402.207 706.65,403.352C706.162,404.497 705.919,405.868 705.919,407.464L705.919,420.751C705.919,423.191 706.457,425.097 707.532,426.468C708.608,427.839 710.05,428.856 711.857,429.518C713.664,430.181 715.773,430.588 718.183,430.739C720.593,430.889 723.132,430.965 725.8,430.965Z"/>
            </clipPath>
            <g clip-path="url(#_clip2)">
                <path d="M722.701,387.851C725.226,387.851 727.872,388.152 730.641,388.755C733.409,389.357 736.099,390.14 738.71,391.105L738.71,371.839L749.984,370.587L749.984,435.845C748.464,436.327 746.649,436.779 744.54,437.201C742.432,437.623 740.173,437.992 737.763,438.308C735.353,438.625 732.85,438.881 730.254,439.077C727.657,439.273 725.14,439.37 722.701,439.37C718.283,439.37 714.339,439.047 710.867,438.399C707.396,437.751 704.455,436.749 702.046,435.393C699.636,434.038 697.8,432.32 696.537,430.242C695.275,428.163 694.644,425.692 694.644,422.83L694.644,404.391C694.644,401.529 695.275,399.059 696.537,396.98C697.8,394.901 699.636,393.183 702.046,391.828C704.455,390.472 707.396,389.47 710.867,388.822C714.339,388.175 718.283,387.851 722.701,387.851ZM725.8,430.965C726.947,430.965 728.116,430.904 729.307,430.784C730.497,430.663 731.659,430.498 732.793,430.287C733.926,430.076 735.002,429.835 736.02,429.564C737.038,429.292 737.935,429.006 738.71,428.705L738.71,400.324C736.73,399.33 734.7,398.509 732.62,397.861C730.54,397.213 728.267,396.889 725.8,396.889C724.021,396.889 722.293,396.927 720.614,397.002C718.936,397.078 717.365,397.243 715.902,397.499C714.439,397.755 713.091,398.117 711.857,398.584C710.624,399.051 709.569,399.676 708.694,400.459C707.819,401.243 707.138,402.207 706.65,403.352C706.162,404.497 705.919,405.868 705.919,407.464L705.919,420.751C705.919,423.191 706.457,425.097 707.532,426.468C708.608,427.839 710.05,428.856 711.857,429.518C713.664,430.181 715.773,430.588 718.183,430.739C720.593,430.889 723.132,430.965 725.8,430.965Z" style="fill:rgb(143,143,143);"/>
                <path d="M627.272,427.962L627.272,401.662C627.272,399.643 627.745,397.888 628.692,396.397C629.639,394.905 630.901,393.632 632.479,392.578C634.057,391.523 635.871,390.657 637.923,389.979C639.974,389.301 642.104,388.774 644.313,388.397C646.522,388.021 648.724,387.757 650.919,387.607C653.113,387.456 655.157,387.381 657.051,387.381C658.514,387.381 660.278,387.456 662.344,387.607C664.409,387.757 666.554,388.021 668.777,388.397C671,388.774 673.202,389.301 675.383,389.979C677.563,390.657 679.521,391.523 681.257,392.578C682.992,393.632 684.398,394.905 685.474,396.397C686.55,397.888 687.087,399.643 687.087,401.662L687.087,417.045L637.772,417.045L637.772,422.197C637.772,423.432 638.088,424.494 638.719,425.383C639.35,426.272 640.196,427.025 641.258,427.643C642.319,428.261 643.538,428.758 644.915,429.134C646.292,429.511 647.727,429.805 649.219,430.016C650.711,430.226 652.195,430.362 653.673,430.422C655.15,430.483 656.534,430.513 657.825,430.513C659.059,430.513 660.371,430.483 661.763,430.422C663.154,430.362 664.538,430.234 665.915,430.038C667.292,429.842 668.619,429.556 669.896,429.179C671.173,428.803 672.291,428.313 673.252,427.711C674.214,427.108 674.981,426.362 675.555,425.474C675.641,425.341 676.553,424.203 676.626,424.063L687.087,425.063L687.087,425.09C687.087,427.108 686.55,428.863 685.474,430.354C684.398,431.846 682.992,433.119 681.257,434.173C679.521,435.228 677.563,436.094 675.383,436.772C673.202,437.45 671,437.977 668.777,438.354C666.554,438.73 664.409,438.994 662.344,439.144C660.278,439.295 658.514,439.37 657.051,439.37C655.157,439.37 653.113,439.295 650.919,439.144C648.724,438.994 646.522,438.73 644.313,438.354C642.104,437.977 639.974,437.45 637.923,436.772C635.871,436.094 633.952,435.428 632.479,434.173C627.609,430.463 627.272,427.962 627.272,427.962ZM637.772,409.706L676.415,409.706L676.415,404.463C676.415,403.228 676.128,402.166 675.555,401.277C674.981,400.389 674.214,399.643 673.252,399.04C672.291,398.438 671.173,397.948 669.896,397.572C668.619,397.195 667.292,396.909 665.915,396.713C664.538,396.517 663.154,396.389 661.763,396.329C660.371,396.269 659.059,396.238 657.825,396.238C656.534,396.238 655.15,396.269 653.673,396.329C652.195,396.389 650.711,396.525 649.219,396.736C647.727,396.946 646.292,397.24 644.915,397.617C643.538,397.993 642.319,398.49 641.258,399.108C640.196,399.726 639.35,400.479 638.719,401.368C638.088,402.257 637.772,403.319 637.772,404.554L637.772,409.706Z" style="fill:rgb(143,143,143);"/>
            </g>
        </g>
    </g>
</svg>
