<svg width="203" height="40" viewBox="0 0 203 40" fill="none" xmlns="http://www.w3.org/2000/svg">
<mask id="path-1-outside-1_131_25" maskUnits="userSpaceOnUse" x="36.6798" y="0.355225" width="167" height="39" fill="black">
<rect fill="white" x="36.6798" y="0.355225" width="167" height="39"/>
<path fill-rule="evenodd" clip-rule="evenodd" d="M83.459 31.2707H80.238C80.0136 31.2707 79.8315 31.089 79.8315 30.8642V28.733C77.806 30.791 75.456 31.8142 72.7879 31.8142C71.1814 31.8142 69.725 31.3975 68.4177 30.5671C67.1084 29.7354 66.1259 28.5903 65.4711 27.131C64.8341 25.7104 64.5044 23.5283 64.5044 20.5813V9.71628C64.5044 9.49189 64.6861 9.30979 64.9109 9.30979H68.0925C68.3173 9.30979 68.499 9.49189 68.499 9.71628V19.8053C68.499 22.0829 68.6006 23.6336 68.8157 24.4559C69.0213 25.2421 69.3213 25.9083 69.7205 26.4526C70.1034 26.9749 70.5912 27.3644 71.1834 27.6196C71.7985 27.8851 72.5472 28.0131 73.4281 28.0131C74.3093 28.0131 75.1719 27.7944 76.0166 27.3599C76.8698 26.9209 77.6011 26.3111 78.2104 25.5307C78.8214 24.7486 79.2441 23.9186 79.4766 23.0389C79.7177 22.1247 79.8315 20.2963 79.8315 17.5546V9.71628C79.8315 9.49189 80.0136 9.30979 80.238 9.30979H83.459C83.6834 9.30979 83.8655 9.49189 83.8655 9.71628V30.8642C83.8655 31.089 83.6834 31.2707 83.459 31.2707ZM109.487 21.2597H91.377C91.5668 23.2775 92.2944 24.9161 93.5712 26.1701C94.9277 27.5018 96.5463 28.1684 98.4279 28.1684C101.664 28.1684 104.126 26.5636 105.83 23.3775C105.935 23.182 106.177 23.1064 106.375 23.2076L109.091 24.6047C109.188 24.6547 109.261 24.7417 109.293 24.8462C109.325 24.9502 109.314 25.0632 109.262 25.1596C108.01 27.4786 106.525 29.187 104.819 30.2935C103.101 31.4073 101.049 31.9695 98.6609 31.9695C95.359 31.9695 92.6359 30.8317 90.4884 28.5635C88.3458 26.2998 87.2731 23.5751 87.2731 20.3874C87.2731 17.2001 88.3519 14.4685 90.5079 12.1922C92.67 9.90935 95.3484 8.76672 98.5446 8.76672C101.738 8.76672 104.407 9.85001 106.554 12.0105C108.693 14.1616 109.813 17.1034 109.893 20.8443C109.896 20.9536 109.854 21.0593 109.777 21.1374C109.701 21.2154 109.596 21.2597 109.487 21.2597ZM105.399 17.6139C104.987 16.142 104.202 14.9754 103.038 14.1181C101.736 13.1609 100.238 12.684 98.5446 12.684C95.2821 12.684 93.0712 14.3352 91.8916 17.6139H105.399ZM134.817 31.2707H131.674C131.449 31.2707 131.267 31.089 131.267 30.8642L131.267 28.7635C129.046 30.9049 126.521 31.9695 123.7 31.9695C120.571 31.9695 117.906 30.8289 115.705 28.5468C113.507 26.2693 112.409 23.5369 112.409 20.3488C112.409 17.1591 113.521 14.4319 115.746 12.1674C117.972 9.90041 120.688 8.76672 123.894 8.76672C126.763 8.76672 129.222 9.80327 131.267 11.8829V1.76171C131.267 1.53733 131.449 1.35522 131.674 1.35522H134.817C135.041 1.35522 135.223 1.53733 135.223 1.76171V30.8642C135.223 31.089 135.041 31.2707 134.817 31.2707ZM123.952 28.1684C125.892 28.1684 127.621 27.4396 129.143 25.9912C130.665 24.5425 131.422 22.706 131.422 20.4845C131.422 18.2558 130.719 16.3949 129.303 14.9051C127.894 13.4222 126.116 12.684 123.971 12.684C121.827 12.684 120.036 13.4486 118.603 14.9803C117.163 16.5184 116.442 18.3273 116.442 20.4069C116.442 22.4861 117.182 24.2998 118.658 25.8498C120.129 27.394 121.893 28.1684 123.952 28.1684ZM166.731 31.2707H163.588C163.364 31.2707 163.181 31.089 163.181 30.8642L163.181 28.7635C160.961 30.9049 158.443 31.9695 155.633 31.9695C152.519 31.9695 149.853 30.8232 147.638 28.5273C145.428 26.2368 144.323 23.5039 144.323 20.3293C144.323 17.153 145.435 14.4324 147.66 12.1674C149.886 9.90041 152.602 8.76672 155.808 8.76672C158.678 8.76672 161.136 9.80327 163.181 11.8829V9.71628C163.181 9.49189 163.364 9.30979 163.588 9.30979H166.731C166.955 9.30979 167.137 9.49189 167.137 9.71628V30.8642C167.137 31.089 166.955 31.2707 166.731 31.2707ZM155.866 28.1684C157.902 28.1684 159.656 27.431 161.127 25.9591C162.602 24.4844 163.337 22.6458 163.337 20.4455C163.337 18.2436 162.614 16.3973 161.163 14.9087C159.716 13.4251 157.943 12.684 155.847 12.684C153.751 12.684 151.981 13.4503 150.535 14.9819C149.083 16.5197 148.356 18.3346 148.356 20.4264C148.356 22.517 149.096 24.3307 150.571 25.8681C152.042 27.4005 153.807 28.1684 155.866 28.1684ZM175.627 11.8824C177.67 9.80326 180.123 8.76672 182.981 8.76672C186.173 8.76672 188.882 9.90041 191.109 12.1674C193.334 14.4319 194.446 17.1591 194.446 20.3488C194.446 23.5369 193.347 26.2693 191.15 28.5468C188.948 30.8293 186.289 31.9695 183.175 31.9695C180.365 31.9695 177.847 30.9049 175.627 28.7631V38.3534C175.627 38.5777 175.444 38.7598 175.22 38.7598H172.038C171.814 38.7598 171.632 38.5777 171.632 38.3534V9.71628C171.632 9.49189 171.814 9.30979 172.038 9.30979H175.22C175.444 9.30979 175.627 9.49189 175.627 9.71628V11.8824ZM182.981 28.1684C184.991 28.1684 186.737 27.4115 188.22 25.9034C189.708 24.3913 190.451 22.5654 190.451 20.4264C190.451 18.2863 189.72 16.4595 188.257 14.9466C186.797 13.4381 185.013 12.684 182.903 12.684C180.795 12.684 179.023 13.4243 177.588 14.9075C176.149 16.3961 175.433 18.2367 175.433 20.4264C175.433 22.6145 176.168 24.4535 177.643 25.9412C179.115 27.4257 180.895 28.1684 182.981 28.1684ZM199.502 1.35522C200.315 1.35522 200.998 1.6357 201.555 2.19218C202.112 2.74947 202.392 3.42709 202.392 4.22584C202.392 5.02418 202.112 5.7018 201.555 6.2595C200.997 6.81679 200.32 7.09646 199.522 7.09646C198.722 7.09646 198.042 6.80948 197.484 6.23592C196.927 5.66399 196.651 4.99329 196.651 4.22584C196.651 3.45799 196.927 2.78728 197.484 2.21535C198.043 1.64139 198.716 1.35522 199.502 1.35522ZM201.132 31.2707H197.911C197.687 31.2707 197.505 31.089 197.505 30.8642V9.71628C197.505 9.49189 197.687 9.30979 197.911 9.30979H201.132C201.356 9.30979 201.538 9.49189 201.538 9.71628V30.8642C201.538 31.089 201.356 31.2707 201.132 31.2707ZM60.0879 31.2707H56.9449C56.7201 31.2707 56.5384 31.089 56.5384 30.8642L56.538 28.7635C54.317 30.9049 51.7923 31.9695 48.9708 31.9695C45.8425 31.9695 43.1772 30.8289 40.9756 28.5468C38.7785 26.2693 37.6798 23.5369 37.6798 20.3488C37.6798 17.1591 38.7924 14.4319 41.0171 12.1674C43.2434 9.90041 45.9592 8.76672 49.1647 8.76672C52.0345 8.76672 54.4934 9.80327 56.5384 11.8829V1.76171C56.5384 1.53733 56.7201 1.35522 56.9449 1.35522H60.0879C60.3123 1.35522 60.4944 1.53733 60.4944 1.76171V30.8642C60.4944 31.089 60.3123 31.2707 60.0879 31.2707ZM49.2229 28.1684C51.1626 28.1684 52.8918 27.4396 54.4141 25.9912C55.936 24.5425 56.6933 22.706 56.6933 20.4845C56.6933 18.2558 55.9901 16.3949 54.5743 14.9051C53.165 13.4222 51.3866 12.684 49.2424 12.684C47.0977 12.684 45.3076 13.4486 43.8739 14.9803C42.4341 16.5184 41.7134 18.3273 41.7134 20.4069C41.7134 22.4861 42.4532 24.2998 43.9296 25.8498C45.4002 27.394 47.164 28.1684 49.2229 28.1684Z"/>
</mask>
<path fill-rule="evenodd" clip-rule="evenodd" d="M83.459 31.2707H80.238C80.0136 31.2707 79.8315 31.089 79.8315 30.8642V28.733C77.806 30.791 75.456 31.8142 72.7879 31.8142C71.1814 31.8142 69.725 31.3975 68.4177 30.5671C67.1084 29.7354 66.1259 28.5903 65.4711 27.131C64.8341 25.7104 64.5044 23.5283 64.5044 20.5813V9.71628C64.5044 9.49189 64.6861 9.30979 64.9109 9.30979H68.0925C68.3173 9.30979 68.499 9.49189 68.499 9.71628V19.8053C68.499 22.0829 68.6006 23.6336 68.8157 24.4559C69.0213 25.2421 69.3213 25.9083 69.7205 26.4526C70.1034 26.9749 70.5912 27.3644 71.1834 27.6196C71.7985 27.8851 72.5472 28.0131 73.4281 28.0131C74.3093 28.0131 75.1719 27.7944 76.0166 27.3599C76.8698 26.9209 77.6011 26.3111 78.2104 25.5307C78.8214 24.7486 79.2441 23.9186 79.4766 23.0389C79.7177 22.1247 79.8315 20.2963 79.8315 17.5546V9.71628C79.8315 9.49189 80.0136 9.30979 80.238 9.30979H83.459C83.6834 9.30979 83.8655 9.49189 83.8655 9.71628V30.8642C83.8655 31.089 83.6834 31.2707 83.459 31.2707ZM109.487 21.2597H91.377C91.5668 23.2775 92.2944 24.9161 93.5712 26.1701C94.9277 27.5018 96.5463 28.1684 98.4279 28.1684C101.664 28.1684 104.126 26.5636 105.83 23.3775C105.935 23.182 106.177 23.1064 106.375 23.2076L109.091 24.6047C109.188 24.6547 109.261 24.7417 109.293 24.8462C109.325 24.9502 109.314 25.0632 109.262 25.1596C108.01 27.4786 106.525 29.187 104.819 30.2935C103.101 31.4073 101.049 31.9695 98.6609 31.9695C95.359 31.9695 92.6359 30.8317 90.4884 28.5635C88.3458 26.2998 87.2731 23.5751 87.2731 20.3874C87.2731 17.2001 88.3519 14.4685 90.5079 12.1922C92.67 9.90935 95.3484 8.76672 98.5446 8.76672C101.738 8.76672 104.407 9.85001 106.554 12.0105C108.693 14.1616 109.813 17.1034 109.893 20.8443C109.896 20.9536 109.854 21.0593 109.777 21.1374C109.701 21.2154 109.596 21.2597 109.487 21.2597ZM105.399 17.6139C104.987 16.142 104.202 14.9754 103.038 14.1181C101.736 13.1609 100.238 12.684 98.5446 12.684C95.2821 12.684 93.0712 14.3352 91.8916 17.6139H105.399ZM134.817 31.2707H131.674C131.449 31.2707 131.267 31.089 131.267 30.8642L131.267 28.7635C129.046 30.9049 126.521 31.9695 123.7 31.9695C120.571 31.9695 117.906 30.8289 115.705 28.5468C113.507 26.2693 112.409 23.5369 112.409 20.3488C112.409 17.1591 113.521 14.4319 115.746 12.1674C117.972 9.90041 120.688 8.76672 123.894 8.76672C126.763 8.76672 129.222 9.80327 131.267 11.8829V1.76171C131.267 1.53733 131.449 1.35522 131.674 1.35522H134.817C135.041 1.35522 135.223 1.53733 135.223 1.76171V30.8642C135.223 31.089 135.041 31.2707 134.817 31.2707ZM123.952 28.1684C125.892 28.1684 127.621 27.4396 129.143 25.9912C130.665 24.5425 131.422 22.706 131.422 20.4845C131.422 18.2558 130.719 16.3949 129.303 14.9051C127.894 13.4222 126.116 12.684 123.971 12.684C121.827 12.684 120.036 13.4486 118.603 14.9803C117.163 16.5184 116.442 18.3273 116.442 20.4069C116.442 22.4861 117.182 24.2998 118.658 25.8498C120.129 27.394 121.893 28.1684 123.952 28.1684ZM166.731 31.2707H163.588C163.364 31.2707 163.181 31.089 163.181 30.8642L163.181 28.7635C160.961 30.9049 158.443 31.9695 155.633 31.9695C152.519 31.9695 149.853 30.8232 147.638 28.5273C145.428 26.2368 144.323 23.5039 144.323 20.3293C144.323 17.153 145.435 14.4324 147.66 12.1674C149.886 9.90041 152.602 8.76672 155.808 8.76672C158.678 8.76672 161.136 9.80327 163.181 11.8829V9.71628C163.181 9.49189 163.364 9.30979 163.588 9.30979H166.731C166.955 9.30979 167.137 9.49189 167.137 9.71628V30.8642C167.137 31.089 166.955 31.2707 166.731 31.2707ZM155.866 28.1684C157.902 28.1684 159.656 27.431 161.127 25.9591C162.602 24.4844 163.337 22.6458 163.337 20.4455C163.337 18.2436 162.614 16.3973 161.163 14.9087C159.716 13.4251 157.943 12.684 155.847 12.684C153.751 12.684 151.981 13.4503 150.535 14.9819C149.083 16.5197 148.356 18.3346 148.356 20.4264C148.356 22.517 149.096 24.3307 150.571 25.8681C152.042 27.4005 153.807 28.1684 155.866 28.1684ZM175.627 11.8824C177.67 9.80326 180.123 8.76672 182.981 8.76672C186.173 8.76672 188.882 9.90041 191.109 12.1674C193.334 14.4319 194.446 17.1591 194.446 20.3488C194.446 23.5369 193.347 26.2693 191.15 28.5468C188.948 30.8293 186.289 31.9695 183.175 31.9695C180.365 31.9695 177.847 30.9049 175.627 28.7631V38.3534C175.627 38.5777 175.444 38.7598 175.22 38.7598H172.038C171.814 38.7598 171.632 38.5777 171.632 38.3534V9.71628C171.632 9.49189 171.814 9.30979 172.038 9.30979H175.22C175.444 9.30979 175.627 9.49189 175.627 9.71628V11.8824ZM182.981 28.1684C184.991 28.1684 186.737 27.4115 188.22 25.9034C189.708 24.3913 190.451 22.5654 190.451 20.4264C190.451 18.2863 189.72 16.4595 188.257 14.9466C186.797 13.4381 185.013 12.684 182.903 12.684C180.795 12.684 179.023 13.4243 177.588 14.9075C176.149 16.3961 175.433 18.2367 175.433 20.4264C175.433 22.6145 176.168 24.4535 177.643 25.9412C179.115 27.4257 180.895 28.1684 182.981 28.1684ZM199.502 1.35522C200.315 1.35522 200.998 1.6357 201.555 2.19218C202.112 2.74947 202.392 3.42709 202.392 4.22584C202.392 5.02418 202.112 5.7018 201.555 6.2595C200.997 6.81679 200.32 7.09646 199.522 7.09646C198.722 7.09646 198.042 6.80948 197.484 6.23592C196.927 5.66399 196.651 4.99329 196.651 4.22584C196.651 3.45799 196.927 2.78728 197.484 2.21535C198.043 1.64139 198.716 1.35522 199.502 1.35522ZM201.132 31.2707H197.911C197.687 31.2707 197.505 31.089 197.505 30.8642V9.71628C197.505 9.49189 197.687 9.30979 197.911 9.30979H201.132C201.356 9.30979 201.538 9.49189 201.538 9.71628V30.8642C201.538 31.089 201.356 31.2707 201.132 31.2707ZM60.0879 31.2707H56.9449C56.7201 31.2707 56.5384 31.089 56.5384 30.8642L56.538 28.7635C54.317 30.9049 51.7923 31.9695 48.9708 31.9695C45.8425 31.9695 43.1772 30.8289 40.9756 28.5468C38.7785 26.2693 37.6798 23.5369 37.6798 20.3488C37.6798 17.1591 38.7924 14.4319 41.0171 12.1674C43.2434 9.90041 45.9592 8.76672 49.1647 8.76672C52.0345 8.76672 54.4934 9.80327 56.5384 11.8829V1.76171C56.5384 1.53733 56.7201 1.35522 56.9449 1.35522H60.0879C60.3123 1.35522 60.4944 1.53733 60.4944 1.76171V30.8642C60.4944 31.089 60.3123 31.2707 60.0879 31.2707ZM49.2229 28.1684C51.1626 28.1684 52.8918 27.4396 54.4141 25.9912C55.936 24.5425 56.6933 22.706 56.6933 20.4845C56.6933 18.2558 55.9901 16.3949 54.5743 14.9051C53.165 13.4222 51.3866 12.684 49.2424 12.684C47.0977 12.684 45.3076 13.4486 43.8739 14.9803C42.4341 16.5184 41.7134 18.3273 41.7134 20.4069C41.7134 22.4861 42.4532 24.2998 43.9296 25.8498C45.4002 27.394 47.164 28.1684 49.2229 28.1684Z" fill="#5F5F5F"/>
<path fill-rule="evenodd" clip-rule="evenodd" d="M83.459 31.2707H80.238C80.0136 31.2707 79.8315 31.089 79.8315 30.8642V28.733C77.806 30.791 75.456 31.8142 72.7879 31.8142C71.1814 31.8142 69.725 31.3975 68.4177 30.5671C67.1084 29.7354 66.1259 28.5903 65.4711 27.131C64.8341 25.7104 64.5044 23.5283 64.5044 20.5813V9.71628C64.5044 9.49189 64.6861 9.30979 64.9109 9.30979H68.0925C68.3173 9.30979 68.499 9.49189 68.499 9.71628V19.8053C68.499 22.0829 68.6006 23.6336 68.8157 24.4559C69.0213 25.2421 69.3213 25.9083 69.7205 26.4526C70.1034 26.9749 70.5912 27.3644 71.1834 27.6196C71.7985 27.8851 72.5472 28.0131 73.4281 28.0131C74.3093 28.0131 75.1719 27.7944 76.0166 27.3599C76.8698 26.9209 77.6011 26.3111 78.2104 25.5307C78.8214 24.7486 79.2441 23.9186 79.4766 23.0389C79.7177 22.1247 79.8315 20.2963 79.8315 17.5546V9.71628C79.8315 9.49189 80.0136 9.30979 80.238 9.30979H83.459C83.6834 9.30979 83.8655 9.49189 83.8655 9.71628V30.8642C83.8655 31.089 83.6834 31.2707 83.459 31.2707ZM109.487 21.2597H91.377C91.5668 23.2775 92.2944 24.9161 93.5712 26.1701C94.9277 27.5018 96.5463 28.1684 98.4279 28.1684C101.664 28.1684 104.126 26.5636 105.83 23.3775C105.935 23.182 106.177 23.1064 106.375 23.2076L109.091 24.6047C109.188 24.6547 109.261 24.7417 109.293 24.8462C109.325 24.9502 109.314 25.0632 109.262 25.1596C108.01 27.4786 106.525 29.187 104.819 30.2935C103.101 31.4073 101.049 31.9695 98.6609 31.9695C95.359 31.9695 92.6359 30.8317 90.4884 28.5635C88.3458 26.2998 87.2731 23.5751 87.2731 20.3874C87.2731 17.2001 88.3519 14.4685 90.5079 12.1922C92.67 9.90935 95.3484 8.76672 98.5446 8.76672C101.738 8.76672 104.407 9.85001 106.554 12.0105C108.693 14.1616 109.813 17.1034 109.893 20.8443C109.896 20.9536 109.854 21.0593 109.777 21.1374C109.701 21.2154 109.596 21.2597 109.487 21.2597ZM105.399 17.6139C104.987 16.142 104.202 14.9754 103.038 14.1181C101.736 13.1609 100.238 12.684 98.5446 12.684C95.2821 12.684 93.0712 14.3352 91.8916 17.6139H105.399ZM134.817 31.2707H131.674C131.449 31.2707 131.267 31.089 131.267 30.8642L131.267 28.7635C129.046 30.9049 126.521 31.9695 123.7 31.9695C120.571 31.9695 117.906 30.8289 115.705 28.5468C113.507 26.2693 112.409 23.5369 112.409 20.3488C112.409 17.1591 113.521 14.4319 115.746 12.1674C117.972 9.90041 120.688 8.76672 123.894 8.76672C126.763 8.76672 129.222 9.80327 131.267 11.8829V1.76171C131.267 1.53733 131.449 1.35522 131.674 1.35522H134.817C135.041 1.35522 135.223 1.53733 135.223 1.76171V30.8642C135.223 31.089 135.041 31.2707 134.817 31.2707ZM123.952 28.1684C125.892 28.1684 127.621 27.4396 129.143 25.9912C130.665 24.5425 131.422 22.706 131.422 20.4845C131.422 18.2558 130.719 16.3949 129.303 14.9051C127.894 13.4222 126.116 12.684 123.971 12.684C121.827 12.684 120.036 13.4486 118.603 14.9803C117.163 16.5184 116.442 18.3273 116.442 20.4069C116.442 22.4861 117.182 24.2998 118.658 25.8498C120.129 27.394 121.893 28.1684 123.952 28.1684ZM166.731 31.2707H163.588C163.364 31.2707 163.181 31.089 163.181 30.8642L163.181 28.7635C160.961 30.9049 158.443 31.9695 155.633 31.9695C152.519 31.9695 149.853 30.8232 147.638 28.5273C145.428 26.2368 144.323 23.5039 144.323 20.3293C144.323 17.153 145.435 14.4324 147.66 12.1674C149.886 9.90041 152.602 8.76672 155.808 8.76672C158.678 8.76672 161.136 9.80327 163.181 11.8829V9.71628C163.181 9.49189 163.364 9.30979 163.588 9.30979H166.731C166.955 9.30979 167.137 9.49189 167.137 9.71628V30.8642C167.137 31.089 166.955 31.2707 166.731 31.2707ZM155.866 28.1684C157.902 28.1684 159.656 27.431 161.127 25.9591C162.602 24.4844 163.337 22.6458 163.337 20.4455C163.337 18.2436 162.614 16.3973 161.163 14.9087C159.716 13.4251 157.943 12.684 155.847 12.684C153.751 12.684 151.981 13.4503 150.535 14.9819C149.083 16.5197 148.356 18.3346 148.356 20.4264C148.356 22.517 149.096 24.3307 150.571 25.8681C152.042 27.4005 153.807 28.1684 155.866 28.1684ZM175.627 11.8824C177.67 9.80326 180.123 8.76672 182.981 8.76672C186.173 8.76672 188.882 9.90041 191.109 12.1674C193.334 14.4319 194.446 17.1591 194.446 20.3488C194.446 23.5369 193.347 26.2693 191.15 28.5468C188.948 30.8293 186.289 31.9695 183.175 31.9695C180.365 31.9695 177.847 30.9049 175.627 28.7631V38.3534C175.627 38.5777 175.444 38.7598 175.22 38.7598H172.038C171.814 38.7598 171.632 38.5777 171.632 38.3534V9.71628C171.632 9.49189 171.814 9.30979 172.038 9.30979H175.22C175.444 9.30979 175.627 9.49189 175.627 9.71628V11.8824ZM182.981 28.1684C184.991 28.1684 186.737 27.4115 188.22 25.9034C189.708 24.3913 190.451 22.5654 190.451 20.4264C190.451 18.2863 189.72 16.4595 188.257 14.9466C186.797 13.4381 185.013 12.684 182.903 12.684C180.795 12.684 179.023 13.4243 177.588 14.9075C176.149 16.3961 175.433 18.2367 175.433 20.4264C175.433 22.6145 176.168 24.4535 177.643 25.9412C179.115 27.4257 180.895 28.1684 182.981 28.1684ZM199.502 1.35522C200.315 1.35522 200.998 1.6357 201.555 2.19218C202.112 2.74947 202.392 3.42709 202.392 4.22584C202.392 5.02418 202.112 5.7018 201.555 6.2595C200.997 6.81679 200.32 7.09646 199.522 7.09646C198.722 7.09646 198.042 6.80948 197.484 6.23592C196.927 5.66399 196.651 4.99329 196.651 4.22584C196.651 3.45799 196.927 2.78728 197.484 2.21535C198.043 1.64139 198.716 1.35522 199.502 1.35522ZM201.132 31.2707H197.911C197.687 31.2707 197.505 31.089 197.505 30.8642V9.71628C197.505 9.49189 197.687 9.30979 197.911 9.30979H201.132C201.356 9.30979 201.538 9.49189 201.538 9.71628V30.8642C201.538 31.089 201.356 31.2707 201.132 31.2707ZM60.0879 31.2707H56.9449C56.7201 31.2707 56.5384 31.089 56.5384 30.8642L56.538 28.7635C54.317 30.9049 51.7923 31.9695 48.9708 31.9695C45.8425 31.9695 43.1772 30.8289 40.9756 28.5468C38.7785 26.2693 37.6798 23.5369 37.6798 20.3488C37.6798 17.1591 38.7924 14.4319 41.0171 12.1674C43.2434 9.90041 45.9592 8.76672 49.1647 8.76672C52.0345 8.76672 54.4934 9.80327 56.5384 11.8829V1.76171C56.5384 1.53733 56.7201 1.35522 56.9449 1.35522H60.0879C60.3123 1.35522 60.4944 1.53733 60.4944 1.76171V30.8642C60.4944 31.089 60.3123 31.2707 60.0879 31.2707ZM49.2229 28.1684C51.1626 28.1684 52.8918 27.4396 54.4141 25.9912C55.936 24.5425 56.6933 22.706 56.6933 20.4845C56.6933 18.2558 55.9901 16.3949 54.5743 14.9051C53.165 13.4222 51.3866 12.684 49.2424 12.684C47.0977 12.684 45.3076 13.4486 43.8739 14.9803C42.4341 16.5184 41.7134 18.3273 41.7134 20.4069C41.7134 22.4861 42.4532 24.2998 43.9296 25.8498C45.4002 27.394 47.164 28.1684 49.2229 28.1684Z" stroke="#5F5F5F" stroke-miterlimit="16" mask="url(#path-1-outside-1_131_25)"/>
<g clip-path="url(#clip0_131_25)">
<g clip-path="url(#clip1_131_25)">
<path fill-rule="evenodd" clip-rule="evenodd" d="M25.4953 6.0867C30.1128 8.81957 33.2111 13.8452 33.2111 19.5874C33.2111 28.2437 26.1704 35.2715 17.4982 35.2715C8.82611 35.2715 1.7854 28.2437 1.7854 19.5874C1.7854 10.9312 8.82611 3.9034 17.4982 3.9034C19.0538 3.9034 20.5569 4.1295 21.9763 4.55062V1.46912C21.9763 0.887545 22.4494 0.415344 23.032 0.415344H24.4396C25.0223 0.415344 25.4953 0.887545 25.4953 1.46912V6.0867Z" fill="url(#paint0_radial_131_25)"/>
<g clip-path="url(#clip2_131_25)">
<path d="M29.9329 17.7804C29.2702 14.5837 27.7682 12.0948 25.4268 10.3138C23.0854 8.53277 20.3905 7.64227 17.3423 7.64227C11.1574 7.64227 7.04888 11.0216 5.01672 17.7804H29.9329Z" fill="url(#paint1_radial_131_25)"/>
<path d="M29.9329 17.7804C29.2702 14.5837 27.7682 12.0948 25.4268 10.3138C23.0854 8.53277 20.3905 7.64227 17.3423 7.64227C11.1574 7.64227 7.04888 11.0216 5.01672 17.7804H29.9329Z" fill="url(#paint2_radial_131_25)" fill-opacity="0.7"/>
<path d="M29.9329 17.7804C29.2702 14.5837 27.7682 12.0948 25.4268 10.3138C23.0854 8.53277 20.3905 7.64227 17.3423 7.64227C11.1574 7.64227 7.04888 11.0216 5.01672 17.7804H29.9329Z" fill="url(#paint3_radial_131_25)" fill-opacity="0.9"/>
</g>
</g>
</g>
<defs>
<radialGradient id="paint0_radial_131_25" cx="0" cy="0" r="1" gradientUnits="userSpaceOnUse" gradientTransform="translate(14.6882 12.0735) rotate(91.5074) scale(34.1253 30.7667)">
<stop offset="0.28" stop-color="white"/>
<stop offset="0.7" stop-color="#999999"/>
</radialGradient>
<radialGradient id="paint1_radial_131_25" cx="0" cy="0" r="1" gradientUnits="userSpaceOnUse" gradientTransform="translate(30.5552 25.5054) rotate(-147.513) scale(29.2211 36.1096)">
<stop stop-color="#00DF9C"/>
<stop offset="0.325143" stop-color="#E3AE11"/>
<stop offset="0.478003" stop-color="#FFA800"/>
<stop offset="0.753887" stop-color="#B15080"/>
<stop offset="1" stop-color="#5B00EF"/>
</radialGradient>
<radialGradient id="paint2_radial_131_25" cx="0" cy="0" r="1" gradientUnits="userSpaceOnUse" gradientTransform="translate(17.4748 22.6962) rotate(-90) scale(19.8278 19.0922)">
<stop offset="0.52266" stop-color="white" stop-opacity="0.4"/>
<stop offset="0.986617" stop-color="#999999" stop-opacity="0"/>
</radialGradient>
<radialGradient id="paint3_radial_131_25" cx="0" cy="0" r="1" gradientUnits="userSpaceOnUse" gradientTransform="translate(15.7707 20.1629) rotate(-80.1518) scale(12.7079 12.6848)">
<stop offset="0.545" stop-color="white" stop-opacity="0"/>
<stop offset="1" stop-opacity="0.3"/>
</radialGradient>
<clipPath id="clip0_131_25">
<rect width="35" height="35" fill="white" transform="translate(0 0.355225)"/>
</clipPath>
<clipPath id="clip1_131_25">
<rect width="31.5" height="34.9752" fill="white" transform="translate(1.75 0.380005)"/>
</clipPath>
<clipPath id="clip2_131_25">
<rect width="24.9667" height="10.2011" fill="white" transform="translate(5.01672 7.64227)"/>
</clipPath>
</defs>
</svg>
