<svg width="135" height="36" viewBox="0 0 135 36" fill="none" xmlns="http://www.w3.org/2000/svg">
<g clip-path="url(#clip0_131_25)">
<g clip-path="url(#clip1_131_25)">
<path fill-rule="evenodd" clip-rule="evenodd" d="M25.4953 6.0867C30.1128 8.81957 33.2111 13.8452 33.2111 19.5874C33.2111 28.2437 26.1704 35.2715 17.4982 35.2715C8.82611 35.2715 1.7854 28.2437 1.7854 19.5874C1.7854 10.9312 8.82611 3.9034 17.4982 3.9034C19.0538 3.9034 20.5569 4.1295 21.9763 4.55062V1.46912C21.9763 0.887545 22.4494 0.415344 23.032 0.415344H24.4396C25.0223 0.415344 25.4953 0.887545 25.4953 1.46912V6.0867Z" fill="url(#paint0_radial_131_25)"/>
<g clip-path="url(#clip2_131_25)">
<path d="M29.9329 17.7804C29.2702 14.5837 27.7682 12.0948 25.4268 10.3138C23.0854 8.53277 20.3905 7.64227 17.3423 7.64227C11.1574 7.64227 7.04888 11.0216 5.01672 17.7804H29.9329Z" fill="url(#paint1_radial_131_25)"/>
<path d="M29.9329 17.7804C29.2702 14.5837 27.7682 12.0948 25.4268 10.3138C23.0854 8.53277 20.3905 7.64227 17.3423 7.64227C11.1574 7.64227 7.04888 11.0216 5.01672 17.7804H29.9329Z" fill="url(#paint2_radial_131_25)" fill-opacity="0.7"/>
<path d="M29.9329 17.7804C29.2702 14.5837 27.7682 12.0948 25.4268 10.3138C23.0854 8.53277 20.3905 7.64227 17.3423 7.64227C11.1574 7.64227 7.04888 11.0216 5.01672 17.7804H29.9329Z" fill="url(#paint3_radial_131_25)" fill-opacity="0.9"/>
</g>
</g>
</g>
<path fill-rule="evenodd" clip-rule="evenodd" d="M60.615 1.35522H56.247V11.3986C54.277 9.57717 51.9225 8.6522 49.2047 8.6522C46.0033 8.6522 43.267 9.80315 41.0332 12.0901C38.8014 14.3495 37.6798 17.0954 37.6798 20.2917C37.6798 23.4861 38.7871 26.2428 40.991 28.5274C43.1971 30.8141 45.8829 31.9694 49.0137 31.9694C51.7143 31.9694 54.1297 31.0031 56.247 29.1174V31.2817H60.615V1.35522ZM42.1242 20.3681C42.1242 18.3646 42.8015 16.6483 44.1681 15.1874C45.5493 13.7125 47.2398 12.982 49.2811 12.982C51.3568 12.982 53.0312 13.6933 54.3554 15.1105L54.3629 15.1182C55.7144 16.5164 56.3998 18.2756 56.3998 20.4445C56.3998 22.5725 55.6746 24.2999 54.2289 25.6757C52.7574 27.076 51.1154 27.7542 49.2811 27.7542C47.3228 27.7542 45.6536 27.0284 44.2408 25.545C42.8209 24.0541 42.1242 22.3377 42.1242 20.3681ZM130.491 1.35522H134.859V31.2817H130.491V29.1174C128.374 31.0031 125.958 31.9694 123.258 31.9694C120.127 31.9694 117.441 30.8141 115.235 28.5274C113.031 26.2428 111.924 23.4861 111.924 20.2917C111.924 17.0954 113.046 14.3495 115.277 12.0901C117.511 9.80314 120.247 8.6522 123.449 8.6522C126.167 8.6522 128.521 9.57717 130.491 11.3986V1.35522ZM118.412 15.1874C117.046 16.6483 116.368 18.3646 116.368 20.3681C116.368 22.3377 117.065 24.0541 118.485 25.545C119.898 27.0284 121.567 27.7542 123.525 27.7542C125.36 27.7542 127.002 27.076 128.473 25.6757C129.919 24.2999 130.644 22.5725 130.644 20.4445C130.644 18.2756 129.959 16.5164 128.607 15.1182L128.6 15.1105C127.275 13.6933 125.601 12.982 123.525 12.982C121.484 12.982 119.793 13.7125 118.412 15.1874ZM105.937 12.3835L106.39 11.9361L106.388 11.9347C108.567 14.1143 109.665 17.0868 109.744 20.7748L109.758 21.4252H91.5399C91.5152 21.2176 91.4965 21.0054 91.4837 20.7884H90.8471L90.846 20.7884C90.8581 21.0046 90.8757 21.2169 90.8991 21.4252H91.5399C91.7593 23.2669 92.4491 24.7366 93.5843 25.8737L93.5802 25.8697L93.1383 26.3279L93.5884 25.8778L93.5843 25.8737C94.8924 27.1332 96.4268 27.7543 98.2193 27.7543C99.778 27.7543 101.126 27.3723 102.287 26.6239C103.451 25.8731 104.459 24.7315 105.299 23.1624L105.594 22.6099L109.403 24.569L109.095 25.1407C107.862 27.4231 106.383 29.1566 104.643 30.2987L104.637 30.3025C102.888 31.423 100.816 31.9695 98.4485 31.9695C95.1533 31.9695 92.3977 30.8366 90.232 28.5627L90.2295 28.56C88.0784 26.2745 87.0001 23.5195 87.0001 20.33C87.0001 17.1404 88.0784 14.3855 90.2295 12.0999L90.2322 12.0971C92.4172 9.80417 95.1316 8.65227 98.3339 8.65227C101.526 8.65227 104.225 9.74549 106.388 11.9347L106.387 11.9333L105.937 12.3835ZM104.764 17.3628H92.1252C92.666 15.9873 93.3911 14.9641 94.2796 14.2571C95.332 13.4197 96.6684 12.9821 98.3339 12.9821C99.9626 12.9821 101.382 13.4394 102.617 14.3481C103.634 15.0958 104.351 16.0921 104.764 17.3628ZM64.4062 9.18712H68.8124V19.7569C68.8124 22.0441 68.9157 23.535 69.0975 24.295C69.3089 25.0426 69.5957 25.6677 69.9499 26.1804C70.3164 26.6506 70.7622 26.9989 71.2933 27.2333C71.8579 27.4714 72.5576 27.6015 73.4096 27.6015C74.2443 27.6015 75.0619 27.3994 75.8691 26.9843C76.6759 26.5694 77.3689 25.9931 77.9508 25.2483C78.5379 24.4968 78.9281 23.7106 79.1338 22.888L79.1378 22.872C79.3656 22.0519 79.4968 20.3045 79.4968 17.5411V9.18712H83.9412V31.2818H79.4968V29.1056C77.5682 30.8965 75.331 31.8166 72.7984 31.8166C71.1816 31.8166 69.7012 31.4038 68.3731 30.5737L68.365 30.5687C67.0378 29.7116 66.0405 28.5464 65.3798 27.0873L65.378 27.0833C64.7112 25.5831 64.4062 23.3725 64.4062 20.521V9.18712Z" fill="#5F5F5F"/>
<defs>
<radialGradient id="paint0_radial_131_25" cx="0" cy="0" r="1" gradientUnits="userSpaceOnUse" gradientTransform="translate(14.6882 12.0735) rotate(91.5074) scale(34.1253 30.7667)">
<stop offset="0.28" stop-color="white"/>
<stop offset="0.7" stop-color="#999999"/>
</radialGradient>
<radialGradient id="paint1_radial_131_25" cx="0" cy="0" r="1" gradientUnits="userSpaceOnUse" gradientTransform="translate(30.5552 25.5054) rotate(-147.513) scale(29.2211 36.1096)">
<stop stop-color="#00DF9C"/>
<stop offset="0.325143" stop-color="#E3AE11"/>
<stop offset="0.478003" stop-color="#FFA800"/>
<stop offset="0.753887" stop-color="#B15080"/>
<stop offset="1" stop-color="#5B00EF"/>
</radialGradient>
<radialGradient id="paint2_radial_131_25" cx="0" cy="0" r="1" gradientUnits="userSpaceOnUse" gradientTransform="translate(17.4748 22.6962) rotate(-90) scale(19.8278 19.0922)">
<stop offset="0.52266" stop-color="white" stop-opacity="0.4"/>
<stop offset="0.986617" stop-color="#999999" stop-opacity="0"/>
</radialGradient>
<radialGradient id="paint3_radial_131_25" cx="0" cy="0" r="1" gradientUnits="userSpaceOnUse" gradientTransform="translate(15.7707 20.1629) rotate(-80.1518) scale(12.7079 12.6848)">
<stop offset="0.545" stop-color="white" stop-opacity="0"/>
<stop offset="1" stop-opacity="0.3"/>
</radialGradient>
<clipPath id="clip0_131_25">
<rect width="35" height="35" fill="white" transform="translate(0 0.355225)"/>
</clipPath>
<clipPath id="clip1_131_25">
<rect width="31.5" height="34.9752" fill="white" transform="translate(1.75 0.380005)"/>
</clipPath>
<clipPath id="clip2_131_25">
<rect width="24.9667" height="10.2011" fill="white" transform="translate(5.01672 7.64227)"/>
</clipPath>
</defs>
</svg>
